<svg width="21" height="20" viewBox="0 0 21 20" fill="none" xmlns="http://www.w3.org/2000/svg">
<path d="M20.7487 0.78091C20.8499 0.281917 20.388 -0.138827 19.9374 0.043265L0.391327 7.94537C0.156086 8.0405 0.000487768 8.27928 1.14469e-06 8.54594C-0.000485479 8.81263 0.15422 9.05206 0.389138 9.14813L5.87999 11.394V18.4678C5.87999 18.7662 6.07346 19.0255 6.3476 19.0945C6.6199 19.1631 6.90385 19.0259 7.0315 18.7577L9.30245 13.9852L14.8444 18.3409C15.1816 18.6059 15.6661 18.4374 15.7888 18.0115C20.9632 0.0446833 20.7395 0.826046 20.7487 0.78091ZM15.9238 3.04495L6.40206 10.2264L2.30518 8.5507L15.9238 3.04495ZM7.09655 11.2843L15.3962 5.02456C8.25447 13.0035 8.62747 12.5836 8.59632 12.628C8.55005 12.6939 8.67682 12.437 7.09655 15.758V11.2843ZM14.8768 16.7619L9.99853 12.9278L18.819 3.07329L14.8768 16.7619Z" fill="white"/>
</svg>
